<svg xmlns="http://www.w3.org/2000/svg" viewBox="0 0 720 300" width="720" height="300" font-family="-apple-system,'PingFang TC','Noto Sans CJK TC','Microsoft JhengHei',sans-serif" role="img">
<rect width="720" height="300" rx="10" fill="#1d1811"/>
<text x="360.0" y="30.0" font-size="17" fill="#f0c87d" text-anchor="middle" font-weight="600">Digital:在特定時間記錄數值(取樣 + 量化)</text>
<line x1="70.0" y1="130.0" x2="640.0" y2="130.0" stroke="#3a3229" stroke-width="1" stroke-linecap="round"/>
<polyline points="70.00,130.00 71.42,128.37 72.85,126.73 74.28,125.11 75.70,123.48 77.12,121.87 78.55,120.26 79.97,118.66 81.40,117.07 82.83,115.49 84.25,113.93 85.67,112.39 87.10,110.86 88.53,109.35 89.95,107.86 91.38,106.39 92.80,104.95 94.22,103.53 95.65,102.14 97.08,100.77 98.50,99.44 99.92,98.13 101.35,96.85 102.78,95.61 104.20,94.40 105.62,93.23 107.05,92.09 108.47,90.99 109.90,89.93 111.32,88.91 112.75,87.93 114.17,86.99 115.60,86.09 117.03,85.24 118.45,84.43 119.88,83.67 121.30,82.95 122.72,82.28 124.15,81.65 125.58,81.07 127.00,80.55 128.43,80.06 129.85,79.63 131.28,79.25 132.70,78.92 134.12,78.64 135.55,78.41 136.97,78.23 138.40,78.10 139.82,78.03 141.25,78.00 142.68,78.03 144.10,78.10 145.53,78.23 146.95,78.41 148.38,78.64 149.80,78.92 151.22,79.25 152.65,79.63 154.07,80.06 155.50,80.55 156.93,81.07 158.35,81.65 159.78,82.28 161.20,82.95 162.62,83.67 164.05,84.43 165.48,85.24 166.90,86.09 168.32,86.99 169.75,87.93 171.18,88.91 172.60,89.93 174.02,90.99 175.45,92.09 176.88,93.23 178.30,94.40 179.73,95.61 181.15,96.85 182.57,98.13 184.00,99.44 185.43,100.77 186.85,102.14 188.27,103.53 189.70,104.95 191.12,106.39 192.55,107.86 193.97,109.35 195.40,110.86 196.82,112.39 198.25,113.93 199.68,115.49 201.10,117.07 202.53,118.66 203.95,120.26 205.38,121.87 206.80,123.48 208.22,125.11 209.65,126.73 211.07,128.37 212.50,130.00 213.93,131.63 215.35,133.27 216.78,134.89 218.20,136.52 219.62,138.13 221.05,139.74 222.48,141.34 223.90,142.93 225.33,144.51 226.75,146.07 228.18,147.61 229.60,149.14 231.02,150.65 232.45,152.14 233.88,153.61 235.30,155.05 236.72,156.47 238.15,157.86 239.57,159.23 241.00,160.56 242.42,161.87 243.85,163.15 245.28,164.39 246.70,165.60 248.12,166.77 249.55,167.91 250.97,169.01 252.40,170.07 253.83,171.09 255.25,172.07 256.68,173.01 258.10,173.91 259.52,174.76 260.95,175.57 262.38,176.33 263.80,177.05 265.23,177.72 266.65,178.35 268.07,178.93 269.50,179.45 270.92,179.94 272.35,180.37 273.77,180.75 275.20,181.08 276.62,181.36 278.05,181.59 279.48,181.77 280.90,181.90 282.32,181.97 283.75,182.00 285.18,181.97 286.60,181.90 288.02,181.77 289.45,181.59 290.88,181.36 292.30,181.08 293.73,180.75 295.15,180.37 296.58,179.94 298.00,179.45 299.43,178.93 300.85,178.35 302.27,177.72 303.70,177.05 305.12,176.33 306.55,175.57 307.98,174.76 309.40,173.91 310.82,173.01 312.25,172.07 313.67,171.09 315.10,170.07 316.52,169.01 317.95,167.91 319.38,166.77 320.80,165.60 322.23,164.39 323.65,163.15 325.08,161.87 326.50,160.56 327.93,159.23 329.35,157.86 330.78,156.47 332.20,155.05 333.62,153.61 335.05,152.14 336.48,150.65 337.90,149.14 339.32,147.61 340.75,146.07 342.18,144.51 343.60,142.93 345.02,141.34 346.45,139.74 347.88,138.13 349.30,136.52 350.73,134.89 352.15,133.27 353.57,131.63 355.00,130.00 356.42,128.37 357.85,126.73 359.27,125.11 360.70,123.48 362.12,121.87 363.55,120.26 364.97,118.66 366.40,117.07 367.82,115.49 369.25,113.93 370.67,112.39 372.10,110.86 373.52,109.35 374.95,107.86 376.38,106.39 377.80,104.95 379.22,103.53 380.65,102.14 382.07,100.77 383.50,99.44 384.93,98.13 386.35,96.85 387.77,95.61 389.20,94.40 390.62,93.23 392.05,92.09 393.48,90.99 394.90,89.93 396.32,88.91 397.75,87.93 399.18,86.99 400.60,86.09 402.03,85.24 403.45,84.43 404.88,83.67 406.30,82.95 407.73,82.28 409.15,81.65 410.58,81.07 412.00,80.55 413.43,80.06 414.85,79.63 416.28,79.25 417.70,78.92 419.12,78.64 420.55,78.41 421.98,78.23 423.40,78.10 424.83,78.03 426.25,78.00 427.67,78.03 429.10,78.10 430.52,78.23 431.95,78.41 433.38,78.64 434.80,78.92 436.22,79.25 437.65,79.63 439.07,80.06 440.50,80.55 441.92,81.07 443.35,81.65 444.77,82.28 446.20,82.95 447.62,83.67 449.05,84.43 450.47,85.24 451.90,86.09 453.32,86.99 454.75,87.93 456.18,88.91 457.60,89.93 459.02,90.99 460.45,92.09 461.88,93.23 463.30,94.40 464.73,95.61 466.15,96.85 467.57,98.13 469.00,99.44 470.43,100.77 471.85,102.14 473.28,103.53 474.70,104.95 476.12,106.39 477.55,107.86 478.98,109.35 480.40,110.86 481.83,112.39 483.25,113.93 484.68,115.49 486.10,117.07 487.53,118.66 488.95,120.26 490.38,121.87 491.80,123.48 493.23,125.11 494.65,126.73 496.08,128.37 497.50,130.00 498.92,131.63 500.35,133.27 501.77,134.89 503.20,136.52 504.62,138.13 506.05,139.74 507.47,141.34 508.90,142.93 510.32,144.51 511.75,146.07 513.17,147.61 514.60,149.14 516.02,150.65 517.45,152.14 518.88,153.61 520.30,155.05 521.72,156.47 523.15,157.86 524.58,159.23 526.00,160.56 527.42,161.87 528.85,163.15 530.27,164.39 531.70,165.60 533.12,166.77 534.55,167.91 535.98,169.01 537.40,170.07 538.83,171.09 540.25,172.07 541.67,173.01 543.10,173.91 544.53,174.76 545.95,175.57 547.38,176.33 548.80,177.05 550.23,177.72 551.65,178.35 553.08,178.93 554.50,179.45 555.92,179.94 557.35,180.37 558.78,180.75 560.20,181.08 561.62,181.36 563.05,181.59 564.48,181.77 565.90,181.90 567.33,181.97 568.75,182.00 570.17,181.97 571.60,181.90 573.02,181.77 574.45,181.59 575.88,181.36 577.30,181.08 578.72,180.75 580.15,180.37 581.58,179.94 583.00,179.45 584.42,178.93 585.85,178.35 587.27,177.72 588.70,177.05 590.12,176.33 591.55,175.57 592.98,174.76 594.40,173.91 595.83,173.01 597.25,172.07 598.67,171.09 600.10,170.07 601.52,169.01 602.95,167.91 604.38,166.77 605.80,165.60 607.23,164.39 608.65,163.15 610.08,161.87 611.50,160.56 612.92,159.23 614.35,157.86 615.77,156.47 617.20,155.05 618.62,153.61 620.05,152.14 621.48,150.65 622.90,149.14 624.33,147.61 625.75,146.07 627.18,144.51 628.60,142.93 630.02,141.34 631.45,139.74 632.88,138.13 634.30,136.52 635.73,134.89 637.15,133.27 638.58,131.63 640.00,130.00" fill="none" stroke="#6fbfae" stroke-width="1.6" stroke-linejoin="round" stroke-linecap="round" opacity="0.5"/>
<line x1="70.0" y1="130.0" x2="70.0" y2="130.0" stroke="#e0a94e" stroke-width="1.2" stroke-linecap="round" opacity="0.55"/>
<circle cx="70.0" cy="130.0" r="3.6" fill="#e0a94e"/>
<line x1="105.6" y1="130.0" x2="105.6" y2="93.2" stroke="#e0a94e" stroke-width="1.2" stroke-linecap="round" opacity="0.55"/>
<circle cx="105.6" cy="93.2" r="3.6" fill="#e0a94e"/>
<line x1="141.2" y1="130.0" x2="141.2" y2="78.0" stroke="#e0a94e" stroke-width="1.2" stroke-linecap="round" opacity="0.55"/>
<circle cx="141.2" cy="78.0" r="3.6" fill="#e0a94e"/>
<line x1="176.9" y1="130.0" x2="176.9" y2="93.2" stroke="#e0a94e" stroke-width="1.2" stroke-linecap="round" opacity="0.55"/>
<circle cx="176.9" cy="93.2" r="3.6" fill="#e0a94e"/>
<line x1="212.5" y1="130.0" x2="212.5" y2="130.0" stroke="#e0a94e" stroke-width="1.2" stroke-linecap="round" opacity="0.55"/>
<circle cx="212.5" cy="130.0" r="3.6" fill="#e0a94e"/>
<line x1="248.1" y1="130.0" x2="248.1" y2="166.8" stroke="#e0a94e" stroke-width="1.2" stroke-linecap="round" opacity="0.55"/>
<circle cx="248.1" cy="166.8" r="3.6" fill="#e0a94e"/>
<line x1="283.8" y1="130.0" x2="283.8" y2="182.0" stroke="#e0a94e" stroke-width="1.2" stroke-linecap="round" opacity="0.55"/>
<circle cx="283.8" cy="182.0" r="3.6" fill="#e0a94e"/>
<line x1="319.4" y1="130.0" x2="319.4" y2="166.8" stroke="#e0a94e" stroke-width="1.2" stroke-linecap="round" opacity="0.55"/>
<circle cx="319.4" cy="166.8" r="3.6" fill="#e0a94e"/>
<line x1="355.0" y1="130.0" x2="355.0" y2="130.0" stroke="#e0a94e" stroke-width="1.2" stroke-linecap="round" opacity="0.55"/>
<circle cx="355.0" cy="130.0" r="3.6" fill="#e0a94e"/>
<line x1="390.6" y1="130.0" x2="390.6" y2="93.2" stroke="#e0a94e" stroke-width="1.2" stroke-linecap="round" opacity="0.55"/>
<circle cx="390.6" cy="93.2" r="3.6" fill="#e0a94e"/>
<line x1="426.2" y1="130.0" x2="426.2" y2="78.0" stroke="#e0a94e" stroke-width="1.2" stroke-linecap="round" opacity="0.55"/>
<circle cx="426.2" cy="78.0" r="3.6" fill="#e0a94e"/>
<line x1="461.9" y1="130.0" x2="461.9" y2="93.2" stroke="#e0a94e" stroke-width="1.2" stroke-linecap="round" opacity="0.55"/>
<circle cx="461.9" cy="93.2" r="3.6" fill="#e0a94e"/>
<line x1="497.5" y1="130.0" x2="497.5" y2="130.0" stroke="#e0a94e" stroke-width="1.2" stroke-linecap="round" opacity="0.55"/>
<circle cx="497.5" cy="130.0" r="3.6" fill="#e0a94e"/>
<line x1="533.1" y1="130.0" x2="533.1" y2="166.8" stroke="#e0a94e" stroke-width="1.2" stroke-linecap="round" opacity="0.55"/>
<circle cx="533.1" cy="166.8" r="3.6" fill="#e0a94e"/>
<line x1="568.8" y1="130.0" x2="568.8" y2="182.0" stroke="#e0a94e" stroke-width="1.2" stroke-linecap="round" opacity="0.55"/>
<circle cx="568.8" cy="182.0" r="3.6" fill="#e0a94e"/>
<line x1="604.4" y1="130.0" x2="604.4" y2="166.8" stroke="#e0a94e" stroke-width="1.2" stroke-linecap="round" opacity="0.55"/>
<circle cx="604.4" cy="166.8" r="3.6" fill="#e0a94e"/>
<line x1="640.0" y1="130.0" x2="640.0" y2="130.0" stroke="#e0a94e" stroke-width="1.2" stroke-linecap="round" opacity="0.55"/>
<circle cx="640.0" cy="130.0" r="3.6" fill="#e0a94e"/>
<text x="360.0" y="74.0" font-size="12.5" fill="#a89f92" text-anchor="middle" font-weight="400">① 每隔固定時間量一次(取樣)</text>
<text x="360.0" y="212.0" font-size="12.5" fill="#a89f92" text-anchor="middle" font-weight="400">② 把量到的振幅寫成數字(量化)</text>
<rect x="44.0" y="228.0" width="44.0" height="30.0" rx="4" fill="none" stroke="#3a3229" stroke-width="1"/>
<text x="66.0" y="248.0" font-size="10.5" fill="#e0a94e" text-anchor="middle" font-weight="400" font-family="ui-monospace,'SF Mono',Menlo,Consolas,monospace">+0.00</text>
<rect x="92.0" y="228.0" width="44.0" height="30.0" rx="4" fill="none" stroke="#3a3229" stroke-width="1"/>
<text x="114.0" y="248.0" font-size="10.5" fill="#e0a94e" text-anchor="middle" font-weight="400" font-family="ui-monospace,'SF Mono',Menlo,Consolas,monospace">+0.71</text>
<rect x="140.0" y="228.0" width="44.0" height="30.0" rx="4" fill="none" stroke="#3a3229" stroke-width="1"/>
<text x="162.0" y="248.0" font-size="10.5" fill="#e0a94e" text-anchor="middle" font-weight="400" font-family="ui-monospace,'SF Mono',Menlo,Consolas,monospace">+1.00</text>
<rect x="188.0" y="228.0" width="44.0" height="30.0" rx="4" fill="none" stroke="#3a3229" stroke-width="1"/>
<text x="210.0" y="248.0" font-size="10.5" fill="#e0a94e" text-anchor="middle" font-weight="400" font-family="ui-monospace,'SF Mono',Menlo,Consolas,monospace">+0.71</text>
<rect x="236.0" y="228.0" width="44.0" height="30.0" rx="4" fill="none" stroke="#3a3229" stroke-width="1"/>
<text x="258.0" y="248.0" font-size="10.5" fill="#e0a94e" text-anchor="middle" font-weight="400" font-family="ui-monospace,'SF Mono',Menlo,Consolas,monospace">+0.00</text>
<rect x="284.0" y="228.0" width="44.0" height="30.0" rx="4" fill="none" stroke="#3a3229" stroke-width="1"/>
<text x="306.0" y="248.0" font-size="10.5" fill="#e0a94e" text-anchor="middle" font-weight="400" font-family="ui-monospace,'SF Mono',Menlo,Consolas,monospace">-0.71</text>
<rect x="332.0" y="228.0" width="44.0" height="30.0" rx="4" fill="none" stroke="#3a3229" stroke-width="1"/>
<text x="354.0" y="248.0" font-size="10.5" fill="#e0a94e" text-anchor="middle" font-weight="400" font-family="ui-monospace,'SF Mono',Menlo,Consolas,monospace">-1.00</text>
<rect x="380.0" y="228.0" width="44.0" height="30.0" rx="4" fill="none" stroke="#3a3229" stroke-width="1"/>
<text x="402.0" y="248.0" font-size="10.5" fill="#e0a94e" text-anchor="middle" font-weight="400" font-family="ui-monospace,'SF Mono',Menlo,Consolas,monospace">-0.71</text>
<rect x="428.0" y="228.0" width="44.0" height="30.0" rx="4" fill="none" stroke="#3a3229" stroke-width="1"/>
<text x="450.0" y="248.0" font-size="10.5" fill="#e0a94e" text-anchor="middle" font-weight="400" font-family="ui-monospace,'SF Mono',Menlo,Consolas,monospace">+0.00</text>
<rect x="476.0" y="228.0" width="44.0" height="30.0" rx="4" fill="none" stroke="#3a3229" stroke-width="1"/>
<text x="498.0" y="248.0" font-size="10.5" fill="#e0a94e" text-anchor="middle" font-weight="400" font-family="ui-monospace,'SF Mono',Menlo,Consolas,monospace">+0.71</text>
<rect x="524.0" y="228.0" width="44.0" height="30.0" rx="4" fill="none" stroke="#3a3229" stroke-width="1"/>
<text x="546.0" y="248.0" font-size="10.5" fill="#e0a94e" text-anchor="middle" font-weight="400" font-family="ui-monospace,'SF Mono',Menlo,Consolas,monospace">+1.00</text>
<rect x="572.0" y="228.0" width="44.0" height="30.0" rx="4" fill="none" stroke="#3a3229" stroke-width="1"/>
<text x="594.0" y="248.0" font-size="10.5" fill="#e0a94e" text-anchor="middle" font-weight="400" font-family="ui-monospace,'SF Mono',Menlo,Consolas,monospace">+0.71</text>
<rect x="620.0" y="228.0" width="44.0" height="30.0" rx="4" fill="none" stroke="#3a3229" stroke-width="1"/>
<text x="642.0" y="248.0" font-size="10.5" fill="#e0a94e" text-anchor="middle" font-weight="400" font-family="ui-monospace,'SF Mono',Menlo,Consolas,monospace">+0.00</text>
<text x="682.0" y="248.0" font-size="13" fill="#a89f92" text-anchor="start" font-weight="400">…</text>
<text x="360.0" y="288.0" font-size="11.5" fill="#f2ece1" text-anchor="middle" font-weight="400">程式看到的就是這一串數字,不是波形</text>
</svg>
