<svg xmlns="http://www.w3.org/2000/svg" viewBox="0 0 720 275" width="720" height="275" font-family="-apple-system,'PingFang TC','Noto Sans CJK TC','Microsoft JhengHei',sans-serif" role="img">
<rect width="720" height="275" rx="10" fill="#1d1811"/>
<text x="360.0" y="30.0" font-size="17" fill="#f0c87d" text-anchor="middle" font-weight="600">為什麼一次處理一批?</text>
<text x="56.0" y="72.0" font-size="12" fill="#d97757" text-anchor="start" font-weight="400">逐筆交付:每一筆都付一次固定開銷</text>
<rect x="62.0" y="96.0" width="12.0" height="24.0" rx="2" fill="none" stroke="#d97757" stroke-width="1.2"/>
<rect x="75.0" y="100.0" width="9.0" height="16.0" rx="2" fill="#a89f92" stroke="#a89f92" stroke-width="0" opacity="0.45"/>
<rect x="87.0" y="96.0" width="12.0" height="24.0" rx="2" fill="none" stroke="#d97757" stroke-width="1.2"/>
<rect x="100.0" y="100.0" width="9.0" height="16.0" rx="2" fill="#a89f92" stroke="#a89f92" stroke-width="0" opacity="0.45"/>
<rect x="112.0" y="96.0" width="12.0" height="24.0" rx="2" fill="none" stroke="#d97757" stroke-width="1.2"/>
<rect x="125.0" y="100.0" width="9.0" height="16.0" rx="2" fill="#a89f92" stroke="#a89f92" stroke-width="0" opacity="0.45"/>
<rect x="137.0" y="96.0" width="12.0" height="24.0" rx="2" fill="none" stroke="#d97757" stroke-width="1.2"/>
<rect x="150.0" y="100.0" width="9.0" height="16.0" rx="2" fill="#a89f92" stroke="#a89f92" stroke-width="0" opacity="0.45"/>
<rect x="162.0" y="96.0" width="12.0" height="24.0" rx="2" fill="none" stroke="#d97757" stroke-width="1.2"/>
<rect x="175.0" y="100.0" width="9.0" height="16.0" rx="2" fill="#a89f92" stroke="#a89f92" stroke-width="0" opacity="0.45"/>
<rect x="187.0" y="96.0" width="12.0" height="24.0" rx="2" fill="none" stroke="#d97757" stroke-width="1.2"/>
<rect x="200.0" y="100.0" width="9.0" height="16.0" rx="2" fill="#a89f92" stroke="#a89f92" stroke-width="0" opacity="0.45"/>
<rect x="212.0" y="96.0" width="12.0" height="24.0" rx="2" fill="none" stroke="#d97757" stroke-width="1.2"/>
<rect x="225.0" y="100.0" width="9.0" height="16.0" rx="2" fill="#a89f92" stroke="#a89f92" stroke-width="0" opacity="0.45"/>
<rect x="237.0" y="96.0" width="12.0" height="24.0" rx="2" fill="none" stroke="#d97757" stroke-width="1.2"/>
<rect x="250.0" y="100.0" width="9.0" height="16.0" rx="2" fill="#a89f92" stroke="#a89f92" stroke-width="0" opacity="0.45"/>
<rect x="262.0" y="96.0" width="12.0" height="24.0" rx="2" fill="none" stroke="#d97757" stroke-width="1.2"/>
<rect x="275.0" y="100.0" width="9.0" height="16.0" rx="2" fill="#a89f92" stroke="#a89f92" stroke-width="0" opacity="0.45"/>
<rect x="287.0" y="96.0" width="12.0" height="24.0" rx="2" fill="none" stroke="#d97757" stroke-width="1.2"/>
<rect x="300.0" y="100.0" width="9.0" height="16.0" rx="2" fill="#a89f92" stroke="#a89f92" stroke-width="0" opacity="0.45"/>
<rect x="312.0" y="96.0" width="12.0" height="24.0" rx="2" fill="none" stroke="#d97757" stroke-width="1.2"/>
<rect x="325.0" y="100.0" width="9.0" height="16.0" rx="2" fill="#a89f92" stroke="#a89f92" stroke-width="0" opacity="0.45"/>
<rect x="337.0" y="96.0" width="12.0" height="24.0" rx="2" fill="none" stroke="#d97757" stroke-width="1.2"/>
<rect x="350.0" y="100.0" width="9.0" height="16.0" rx="2" fill="#a89f92" stroke="#a89f92" stroke-width="0" opacity="0.45"/>
<rect x="362.0" y="96.0" width="12.0" height="24.0" rx="2" fill="none" stroke="#d97757" stroke-width="1.2"/>
<rect x="375.0" y="100.0" width="9.0" height="16.0" rx="2" fill="#a89f92" stroke="#a89f92" stroke-width="0" opacity="0.45"/>
<rect x="387.0" y="96.0" width="12.0" height="24.0" rx="2" fill="none" stroke="#d97757" stroke-width="1.2"/>
<rect x="400.0" y="100.0" width="9.0" height="16.0" rx="2" fill="#a89f92" stroke="#a89f92" stroke-width="0" opacity="0.45"/>
<rect x="412.0" y="96.0" width="12.0" height="24.0" rx="2" fill="none" stroke="#d97757" stroke-width="1.2"/>
<rect x="425.0" y="100.0" width="9.0" height="16.0" rx="2" fill="#a89f92" stroke="#a89f92" stroke-width="0" opacity="0.45"/>
<rect x="437.0" y="96.0" width="12.0" height="24.0" rx="2" fill="none" stroke="#d97757" stroke-width="1.2"/>
<rect x="450.0" y="100.0" width="9.0" height="16.0" rx="2" fill="#a89f92" stroke="#a89f92" stroke-width="0" opacity="0.45"/>
<rect x="462.0" y="96.0" width="12.0" height="24.0" rx="2" fill="none" stroke="#d97757" stroke-width="1.2"/>
<rect x="475.0" y="100.0" width="9.0" height="16.0" rx="2" fill="#a89f92" stroke="#a89f92" stroke-width="0" opacity="0.45"/>
<rect x="487.0" y="96.0" width="12.0" height="24.0" rx="2" fill="none" stroke="#d97757" stroke-width="1.2"/>
<rect x="500.0" y="100.0" width="9.0" height="16.0" rx="2" fill="#a89f92" stroke="#a89f92" stroke-width="0" opacity="0.45"/>
<rect x="512.0" y="96.0" width="12.0" height="24.0" rx="2" fill="none" stroke="#d97757" stroke-width="1.2"/>
<rect x="525.0" y="100.0" width="9.0" height="16.0" rx="2" fill="#a89f92" stroke="#a89f92" stroke-width="0" opacity="0.45"/>
<rect x="537.0" y="96.0" width="12.0" height="24.0" rx="2" fill="none" stroke="#d97757" stroke-width="1.2"/>
<rect x="550.0" y="100.0" width="9.0" height="16.0" rx="2" fill="#a89f92" stroke="#a89f92" stroke-width="0" opacity="0.45"/>
<rect x="562.0" y="96.0" width="12.0" height="24.0" rx="2" fill="none" stroke="#d97757" stroke-width="1.2"/>
<rect x="575.0" y="100.0" width="9.0" height="16.0" rx="2" fill="#a89f92" stroke="#a89f92" stroke-width="0" opacity="0.45"/>
<rect x="587.0" y="96.0" width="12.0" height="24.0" rx="2" fill="none" stroke="#d97757" stroke-width="1.2"/>
<rect x="600.0" y="100.0" width="9.0" height="16.0" rx="2" fill="#a89f92" stroke="#a89f92" stroke-width="0" opacity="0.45"/>
<rect x="612.0" y="96.0" width="12.0" height="24.0" rx="2" fill="none" stroke="#d97757" stroke-width="1.2"/>
<rect x="625.0" y="100.0" width="9.0" height="16.0" rx="2" fill="#a89f92" stroke="#a89f92" stroke-width="0" opacity="0.45"/>
<rect x="637.0" y="96.0" width="12.0" height="24.0" rx="2" fill="none" stroke="#d97757" stroke-width="1.2"/>
<rect x="650.0" y="100.0" width="9.0" height="16.0" rx="2" fill="#a89f92" stroke="#a89f92" stroke-width="0" opacity="0.45"/>
<text x="660.0" y="136.0" font-size="10.5" fill="#a89f92" text-anchor="end" font-weight="400">灰色 = 每次呼叫的固定成本</text>
<text x="56.0" y="166.0" font-size="12" fill="#e0a94e" text-anchor="start" font-weight="400">整批交付:同樣的取樣數,開銷只付幾次</text>
<rect x="62.0" y="190.0" width="128.0" height="24.0" rx="4" fill="none" stroke="#e0a94e" stroke-width="1.6"/>
<rect x="191.0" y="194.0" width="9.0" height="16.0" rx="2" fill="#a89f92" stroke="#a89f92" stroke-width="0" opacity="0.45"/>
<text x="126.0" y="207.0" font-size="11" fill="#f2ece1" text-anchor="middle" font-weight="400">一批</text>
<rect x="212.0" y="190.0" width="128.0" height="24.0" rx="4" fill="none" stroke="#e0a94e" stroke-width="1.6"/>
<rect x="341.0" y="194.0" width="9.0" height="16.0" rx="2" fill="#a89f92" stroke="#a89f92" stroke-width="0" opacity="0.45"/>
<text x="276.0" y="207.0" font-size="11" fill="#f2ece1" text-anchor="middle" font-weight="400">一批</text>
<rect x="362.0" y="190.0" width="128.0" height="24.0" rx="4" fill="none" stroke="#e0a94e" stroke-width="1.6"/>
<rect x="491.0" y="194.0" width="9.0" height="16.0" rx="2" fill="#a89f92" stroke="#a89f92" stroke-width="0" opacity="0.45"/>
<text x="426.0" y="207.0" font-size="11" fill="#f2ece1" text-anchor="middle" font-weight="400">一批</text>
<rect x="512.0" y="190.0" width="128.0" height="24.0" rx="4" fill="none" stroke="#e0a94e" stroke-width="1.6"/>
<rect x="641.0" y="194.0" width="9.0" height="16.0" rx="2" fill="#a89f92" stroke="#a89f92" stroke-width="0" opacity="0.45"/>
<text x="576.0" y="207.0" font-size="11" fill="#f2ece1" text-anchor="middle" font-weight="400">一批</text>
<text x="360.0" y="261.0" font-size="11.5" fill="#f2ece1" text-anchor="middle" font-weight="400">批內仍然是一筆一筆算,省的是「交付」的次數</text>
</svg>
